<mxfile host="Electron" modified="2023-08-29T18:44:19.003Z" agent="Mozilla/5.0 (Windows NT 10.0; Win64; x64) AppleWebKit/537.36 (KHTML, like Gecko) draw.io/21.6.8 Chrome/114.0.5735.289 Electron/25.5.0 Safari/537.36" etag="r7wLuOKtgPO3JUtLa07s" version="21.6.8" type="device">
  <diagram name="Page-1" id="qXilnIDKE1oSLVL5wAeA">
    <mxGraphModel dx="1185" dy="478" grid="1" gridSize="10" guides="1" tooltips="1" connect="1" arrows="1" fold="1" page="1" pageScale="1" pageWidth="850" pageHeight="1100" math="0" shadow="0">
      <root>
        <mxCell id="0" />
        <mxCell id="1" parent="0" />
        <mxCell id="ca9k9FSGEQcXO8GCyVYP-1" value="" style="verticalLabelPosition=bottom;verticalAlign=top;html=1;shape=mxgraph.flowchart.on-page_reference;labelBackgroundColor=none;fillColor=#A8DADC;strokeColor=#457B9D;fontColor=#1D3557;" parent="1" vertex="1">
          <mxGeometry x="400" y="30" width="60" height="60" as="geometry" />
        </mxCell>
        <mxCell id="ca9k9FSGEQcXO8GCyVYP-2" value="on &lt;br&gt;Whitelist" style="strokeWidth=2;html=1;shape=mxgraph.flowchart.decision;whiteSpace=wrap;labelBackgroundColor=none;fillColor=#A8DADC;strokeColor=#457B9D;fontColor=#1D3557;" parent="1" vertex="1">
          <mxGeometry x="380" y="170" width="100" height="100" as="geometry" />
        </mxCell>
        <mxCell id="ca9k9FSGEQcXO8GCyVYP-3" value="" style="verticalLabelPosition=bottom;verticalAlign=top;html=1;shape=mxgraph.flowchart.or;labelBackgroundColor=none;fillColor=#A8DADC;strokeColor=#457B9D;fontColor=#1D3557;" parent="1" vertex="1">
          <mxGeometry x="530" y="200" width="40" height="40" as="geometry" />
        </mxCell>
        <mxCell id="ca9k9FSGEQcXO8GCyVYP-4" value="&#xa;&lt;span style=&quot;color: rgb(29, 53, 87); font-family: Helvetica; font-size: 12px; font-style: normal; font-variant-ligatures: normal; font-variant-caps: normal; font-weight: 400; letter-spacing: normal; orphans: 2; text-align: center; text-indent: 0px; text-transform: none; widows: 2; word-spacing: 0px; -webkit-text-stroke-width: 0px; background-color: rgb(251, 251, 251); text-decoration-thickness: initial; text-decoration-style: initial; text-decoration-color: initial; float: none; display: inline !important;&quot;&gt;send Quote&lt;/span&gt;&#xa;&#xa;" style="endArrow=none;html=1;rounded=0;exitX=0.5;exitY=0;exitDx=0;exitDy=0;exitPerimeter=0;labelBackgroundColor=none;strokeColor=#457B9D;fontColor=default;" parent="1" source="ca9k9FSGEQcXO8GCyVYP-2" edge="1">
          <mxGeometry width="50" height="50" relative="1" as="geometry">
            <mxPoint x="380" y="140" as="sourcePoint" />
            <mxPoint x="430" y="90" as="targetPoint" />
            <mxPoint as="offset" />
          </mxGeometry>
        </mxCell>
        <mxCell id="ca9k9FSGEQcXO8GCyVYP-5" value="&#xa;&lt;span style=&quot;color: rgb(29, 53, 87); font-family: Helvetica; font-size: 11px; font-style: normal; font-variant-ligatures: normal; font-variant-caps: normal; font-weight: 400; letter-spacing: normal; orphans: 2; text-align: center; text-indent: 0px; text-transform: none; widows: 2; word-spacing: 0px; -webkit-text-stroke-width: 0px; background-color: rgb(251, 251, 251); text-decoration-thickness: initial; text-decoration-style: initial; text-decoration-color: initial; float: none; display: inline !important;&quot;&gt;No&lt;/span&gt;&#xa;&#xa;" style="endArrow=none;html=1;rounded=0;entryX=0;entryY=0.5;entryDx=0;entryDy=0;entryPerimeter=0;labelBackgroundColor=none;strokeColor=#457B9D;fontColor=default;" parent="1" source="ca9k9FSGEQcXO8GCyVYP-2" target="ca9k9FSGEQcXO8GCyVYP-3" edge="1">
          <mxGeometry width="50" height="50" relative="1" as="geometry">
            <mxPoint x="480" y="260" as="sourcePoint" />
            <mxPoint x="530" y="210" as="targetPoint" />
          </mxGeometry>
        </mxCell>
        <mxCell id="ca9k9FSGEQcXO8GCyVYP-7" value="&#xa;&lt;span style=&quot;color: rgb(29, 53, 87); font-family: Helvetica; font-size: 11px; font-style: normal; font-variant-ligatures: normal; font-variant-caps: normal; font-weight: 400; letter-spacing: normal; orphans: 2; text-align: center; text-indent: 0px; text-transform: none; widows: 2; word-spacing: 0px; -webkit-text-stroke-width: 0px; background-color: rgb(251, 251, 251); text-decoration-thickness: initial; text-decoration-style: initial; text-decoration-color: initial; float: none; display: inline !important;&quot;&gt;Yes&lt;/span&gt;&#xa;&#xa;" style="endArrow=none;html=1;rounded=0;entryX=0.5;entryY=1;entryDx=0;entryDy=0;entryPerimeter=0;labelBackgroundColor=none;strokeColor=#457B9D;fontColor=default;" parent="1" target="ca9k9FSGEQcXO8GCyVYP-2" edge="1">
          <mxGeometry width="50" height="50" relative="1" as="geometry">
            <mxPoint x="430" y="320" as="sourcePoint" />
            <mxPoint x="530" y="280" as="targetPoint" />
          </mxGeometry>
        </mxCell>
        <mxCell id="ca9k9FSGEQcXO8GCyVYP-9" value="&lt;font style=&quot;font-size: 10px;&quot;&gt;Is the intent&lt;br&gt;interesting&lt;br&gt;&lt;/font&gt;" style="strokeWidth=2;html=1;shape=mxgraph.flowchart.decision;whiteSpace=wrap;labelBackgroundColor=none;fillColor=#A8DADC;strokeColor=#457B9D;fontColor=#1D3557;" parent="1" vertex="1">
          <mxGeometry x="380" y="320" width="100" height="100" as="geometry" />
        </mxCell>
        <mxCell id="ca9k9FSGEQcXO8GCyVYP-10" value="" style="verticalLabelPosition=bottom;verticalAlign=top;html=1;shape=mxgraph.flowchart.or;labelBackgroundColor=none;fillColor=#A8DADC;strokeColor=#457B9D;fontColor=#1D3557;" parent="1" vertex="1">
          <mxGeometry x="530" y="350" width="40" height="40" as="geometry" />
        </mxCell>
        <mxCell id="ca9k9FSGEQcXO8GCyVYP-11" value="" style="endArrow=none;html=1;rounded=0;entryX=0;entryY=0.5;entryDx=0;entryDy=0;entryPerimeter=0;labelBackgroundColor=none;strokeColor=#457B9D;fontColor=default;" parent="1" target="ca9k9FSGEQcXO8GCyVYP-10" edge="1">
          <mxGeometry width="50" height="50" relative="1" as="geometry">
            <mxPoint x="480" y="370" as="sourcePoint" />
            <mxPoint x="530" y="360" as="targetPoint" />
          </mxGeometry>
        </mxCell>
        <mxCell id="ca9k9FSGEQcXO8GCyVYP-13" value="" style="endArrow=none;html=1;rounded=0;entryX=0.5;entryY=1;entryDx=0;entryDy=0;entryPerimeter=0;labelBackgroundColor=none;strokeColor=#457B9D;fontColor=default;" parent="1" edge="1">
          <mxGeometry width="50" height="50" relative="1" as="geometry">
            <mxPoint x="429.71" y="470" as="sourcePoint" />
            <mxPoint x="429.71" y="420" as="targetPoint" />
          </mxGeometry>
        </mxCell>
        <mxCell id="ca9k9FSGEQcXO8GCyVYP-15" value="&lt;font style=&quot;font-size: 10px;&quot;&gt;enough &lt;br&gt;allocated &lt;br&gt;balance&amp;nbsp;&lt;/font&gt;" style="strokeWidth=2;html=1;shape=mxgraph.flowchart.decision;whiteSpace=wrap;fillColor=#A8DADC;strokeColor=#457B9D;labelBackgroundColor=none;fontColor=#1D3557;" parent="1" vertex="1">
          <mxGeometry x="380" y="470" width="100" height="100" as="geometry" />
        </mxCell>
        <mxCell id="ca9k9FSGEQcXO8GCyVYP-16" value="&#xa;&lt;span style=&quot;color: rgb(29, 53, 87); font-family: Helvetica; font-size: 11px; font-style: normal; font-variant-ligatures: normal; font-variant-caps: normal; font-weight: 400; letter-spacing: normal; orphans: 2; text-align: center; text-indent: 0px; text-transform: none; widows: 2; word-spacing: 0px; -webkit-text-stroke-width: 0px; background-color: rgb(251, 251, 251); text-decoration-thickness: initial; text-decoration-style: initial; text-decoration-color: initial; float: none; display: inline !important;&quot;&gt;Yes&lt;/span&gt;&#xa;&#xa;" style="endArrow=none;html=1;rounded=0;entryX=0.5;entryY=1;entryDx=0;entryDy=0;entryPerimeter=0;labelBackgroundColor=none;strokeColor=#457B9D;fontColor=default;" parent="1" source="ca9k9FSGEQcXO8GCyVYP-20" edge="1">
          <mxGeometry width="50" height="50" relative="1" as="geometry">
            <mxPoint x="379.42999999999995" y="570" as="sourcePoint" />
            <mxPoint x="379.42999999999995" y="520" as="targetPoint" />
          </mxGeometry>
        </mxCell>
        <mxCell id="ca9k9FSGEQcXO8GCyVYP-20" value="Lock&amp;nbsp;" style="verticalLabelPosition=middle;verticalAlign=middle;html=1;shape=trapezoid;perimeter=trapezoidPerimeter;whiteSpace=wrap;size=0.23;arcSize=10;flipV=1;labelPosition=center;align=center;strokeColor=#457B9D;fontColor=#1D3557;fillColor=#A8DADC;" parent="1" vertex="1">
          <mxGeometry x="240" y="500" width="100" height="40" as="geometry" />
        </mxCell>
        <mxCell id="ca9k9FSGEQcXO8GCyVYP-21" value="&#xa;&lt;span style=&quot;color: rgb(29, 53, 87); font-family: Helvetica; font-size: 11px; font-style: normal; font-variant-ligatures: normal; font-variant-caps: normal; font-weight: 400; letter-spacing: normal; orphans: 2; text-align: center; text-indent: 0px; text-transform: none; widows: 2; word-spacing: 0px; -webkit-text-stroke-width: 0px; background-color: rgb(251, 251, 251); text-decoration-thickness: initial; text-decoration-style: initial; text-decoration-color: initial; float: none; display: inline !important;&quot;&gt;No&lt;/span&gt;&#xa;&#xa;" style="endArrow=none;html=1;rounded=0;entryX=0;entryY=0.5;entryDx=0;entryDy=0;entryPerimeter=0;labelBackgroundColor=none;strokeColor=#457B9D;fontColor=default;" parent="1" edge="1">
          <mxGeometry width="50" height="50" relative="1" as="geometry">
            <mxPoint x="480" y="519.71" as="sourcePoint" />
            <mxPoint x="530" y="519.71" as="targetPoint" />
          </mxGeometry>
        </mxCell>
        <mxCell id="ca9k9FSGEQcXO8GCyVYP-23" value="&lt;font style=&quot;font-size: 10px;&quot;&gt;Allocate&amp;amp;Lock&lt;/font&gt;" style="verticalLabelPosition=middle;verticalAlign=middle;html=1;shape=trapezoid;perimeter=trapezoidPerimeter;whiteSpace=wrap;size=0.23;arcSize=10;flipV=1;labelPosition=center;align=center;strokeColor=#457B9D;fontColor=#1D3557;fillColor=#A8DADC;" parent="1" vertex="1">
          <mxGeometry x="520" y="500" width="100" height="40" as="geometry" />
        </mxCell>
        <mxCell id="ca9k9FSGEQcXO8GCyVYP-24" value="" style="endArrow=none;html=1;rounded=0;strokeColor=#457B9D;fontColor=#1D3557;fillColor=#A8DADC;" parent="1" edge="1">
          <mxGeometry width="50" height="50" relative="1" as="geometry">
            <mxPoint x="290" y="580" as="sourcePoint" />
            <mxPoint x="290" y="540" as="targetPoint" />
          </mxGeometry>
        </mxCell>
        <mxCell id="ca9k9FSGEQcXO8GCyVYP-26" value="" style="endArrow=none;html=1;rounded=0;strokeColor=#457B9D;fontColor=#1D3557;fillColor=#A8DADC;" parent="1" edge="1">
          <mxGeometry width="50" height="50" relative="1" as="geometry">
            <mxPoint x="570" y="580" as="sourcePoint" />
            <mxPoint x="570" y="540" as="targetPoint" />
          </mxGeometry>
        </mxCell>
        <mxCell id="ca9k9FSGEQcXO8GCyVYP-27" value="" style="endArrow=none;html=1;rounded=0;strokeColor=#457B9D;fontColor=#1D3557;fillColor=#A8DADC;" parent="1" edge="1">
          <mxGeometry width="50" height="50" relative="1" as="geometry">
            <mxPoint x="570" y="580" as="sourcePoint" />
            <mxPoint x="290" y="580" as="targetPoint" />
          </mxGeometry>
        </mxCell>
        <mxCell id="ca9k9FSGEQcXO8GCyVYP-28" value="" style="endArrow=none;html=1;rounded=0;strokeColor=#457B9D;fontColor=#1D3557;fillColor=#A8DADC;" parent="1" edge="1">
          <mxGeometry width="50" height="50" relative="1" as="geometry">
            <mxPoint x="429.71" y="620" as="sourcePoint" />
            <mxPoint x="429.71" y="580" as="targetPoint" />
          </mxGeometry>
        </mxCell>
        <mxCell id="ca9k9FSGEQcXO8GCyVYP-29" value="Is Quote Filled&amp;nbsp;" style="strokeWidth=2;html=1;shape=mxgraph.flowchart.decision;whiteSpace=wrap;fillColor=#A8DADC;strokeColor=#457B9D;labelBackgroundColor=none;fontColor=#1D3557;" parent="1" vertex="1">
          <mxGeometry x="380" y="620" width="100" height="100" as="geometry" />
        </mxCell>
        <mxCell id="ca9k9FSGEQcXO8GCyVYP-32" value="" style="curved=1;endArrow=classic;html=1;rounded=0;strokeColor=#457B9D;fontColor=#1D3557;fillColor=#A8DADC;entryX=0.748;entryY=0.21;entryDx=0;entryDy=0;entryPerimeter=0;" parent="1" target="ca9k9FSGEQcXO8GCyVYP-29" edge="1">
          <mxGeometry width="50" height="50" relative="1" as="geometry">
            <mxPoint x="480" y="670" as="sourcePoint" />
            <mxPoint x="530" y="620" as="targetPoint" />
            <Array as="points">
              <mxPoint x="530" y="670" />
              <mxPoint x="480" y="620" />
            </Array>
          </mxGeometry>
        </mxCell>
        <mxCell id="ca9k9FSGEQcXO8GCyVYP-33" value="No" style="edgeLabel;html=1;align=center;verticalAlign=middle;resizable=0;points=[];fontColor=#1D3557;" parent="ca9k9FSGEQcXO8GCyVYP-32" vertex="1" connectable="0">
          <mxGeometry x="0.1655" y="-1" relative="1" as="geometry">
            <mxPoint as="offset" />
          </mxGeometry>
        </mxCell>
        <mxCell id="ca9k9FSGEQcXO8GCyVYP-34" value="" style="endArrow=none;html=1;rounded=0;labelBackgroundColor=none;strokeColor=#457B9D;fontColor=default;" parent="1" edge="1">
          <mxGeometry width="50" height="50" relative="1" as="geometry">
            <mxPoint x="430" y="720" as="sourcePoint" />
            <mxPoint x="430" y="760" as="targetPoint" />
          </mxGeometry>
        </mxCell>
        <mxCell id="ca9k9FSGEQcXO8GCyVYP-37" value="Yes" style="edgeLabel;html=1;align=center;verticalAlign=middle;resizable=0;points=[];fontColor=#1D3557;" parent="ca9k9FSGEQcXO8GCyVYP-34" vertex="1" connectable="0">
          <mxGeometry x="0.2429" y="1" relative="1" as="geometry">
            <mxPoint as="offset" />
          </mxGeometry>
        </mxCell>
        <mxCell id="ca9k9FSGEQcXO8GCyVYP-38" value="OpenPosition" style="verticalLabelPosition=middle;verticalAlign=middle;html=1;shape=trapezoid;perimeter=trapezoidPerimeter;whiteSpace=wrap;size=0.23;arcSize=10;flipV=1;labelPosition=center;align=center;strokeColor=#457B9D;fontColor=#1D3557;fillColor=#A8DADC;" parent="1" vertex="1">
          <mxGeometry x="380" y="760" width="100" height="40" as="geometry" />
        </mxCell>
        <mxCell id="dl8KSh6MRwKQ1EFmddx1-3" value="No" style="edgeLabel;html=1;align=center;verticalAlign=middle;resizable=0;points=[];labelBackgroundColor=none;fontColor=#1D3557;" vertex="1" connectable="0" parent="1">
          <mxGeometry x="500.57142857142867" y="369" as="geometry">
            <mxPoint x="-3" y="-10" as="offset" />
          </mxGeometry>
        </mxCell>
      </root>
    </mxGraphModel>
  </diagram>
</mxfile>
